{
    "asset" : {
        "generator" : "Khronos glTF Blender I/O v1.5.17",
        "version" : "2.0"
    },
    "extensionsUsed" : [
        "KHR_materials_transmission"
    ],
    "scene" : 0,
    "scenes" : [
        {
            "name" : "Scene",
            "nodes" : [
                0,
                1,
                2,
                3,
                4,
                5,
                6,
                7
            ]
        }
    ],
    "nodes" : [
        {
            "name" : "Light",
            "rotation" : [
                0.16907575726509094,
                0.7558803558349609,
                -0.27217137813568115,
                0.570947527885437
            ],
            "translation" : [
                1.1451998949050903,
                -2.530703544616699,
                1.995192050933838
            ]
        },
        {
            "name" : "Camera",
            "rotation" : [
                0.7428941130638123,
                -0.11457914113998413,
                0.13171608746051788,
                0.6462436318397522
            ],
            "translation" : [
                -6.54009485244751,
                -1.3336457014083862,
                17.430679321289062
            ]
        },
        {
            "mesh" : 0,
            "name" : "eggbottom",
            "rotation" : [
                0,
                0,
                -0.7071068286895752,
                0.7071068286895752
            ],
            "translation" : [
                0,
                1.9194858074188232,
                0
            ]
        },
        {
            "mesh" : 1,
            "name" : "eggwhite",
            "rotation" : [
                0,
                0,
                -0.7071068286895752,
                0.7071068286895752
            ],
            "scale" : [
                0.9521487951278687,
                0.9521487951278687,
                0.9521487951278687
            ],
            "translation" : [
                0,
                1.9194858074188232,
                0
            ]
        },
        {
            "mesh" : 2,
            "name" : "egg.top",
            "rotation" : [
                0,
                0,
                -0.7071068286895752,
                0.7071068286895752
            ],
            "translation" : [
                0,
                1.9194858074188232,
                0
            ]
        },
        {
            "mesh" : 3,
            "name" : "eggyolk",
            "scale" : [
                0.7568165063858032,
                0.7568165063858032,
                0.7568165063858032
            ],
            "translation" : [
                0,
                1.9194769859313965,
                0
            ]
        },
        {
            "mesh" : 4,
            "name" : "Cube",
            "rotation" : [
                0,
                -0.10118550062179565,
                0,
                0.9948675632476807
            ],
            "scale" : [
                10.023197174072266,
                10.023197174072266,
                10.023197174072266
            ],
            "translation" : [
                0,
                5.441946983337402,
                0
            ]
        },
        {
            "name" : "Light.001",
            "rotation" : [
                0.16907575726509094,
                0.7558803558349609,
                -0.27217137813568115,
                0.570947527885437
            ],
            "translation" : [
                -2.8665053844451904,
                4.097537994384766,
                4.529513835906982
            ]
        }
    ],
    "animations" : [
        {
            "channels" : [
                {
                    "sampler" : 0,
                    "target" : {
                        "node" : 2,
                        "path" : "translation"
                    }
                },
                {
                    "sampler" : 1,
                    "target" : {
                        "node" : 2,
                        "path" : "rotation"
                    }
                },
                {
                    "sampler" : 2,
                    "target" : {
                        "node" : 2,
                        "path" : "scale"
                    }
                }
            ],
            "name" : "eggAction",
            "samplers" : [
                {
                    "input" : 22,
                    "interpolation" : "LINEAR",
                    "output" : 23
                },
                {
                    "input" : 22,
                    "interpolation" : "LINEAR",
                    "output" : 24
                },
                {
                    "input" : 22,
                    "interpolation" : "LINEAR",
                    "output" : 25
                }
            ]
        },
        {
            "channels" : [
                {
                    "sampler" : 0,
                    "target" : {
                        "node" : 3,
                        "path" : "weights"
                    }
                }
            ],
            "name" : "KeyAction",
            "samplers" : [
                {
                    "input" : 26,
                    "interpolation" : "LINEAR",
                    "output" : 27
                }
            ]
        },
        {
            "channels" : [
                {
                    "sampler" : 0,
                    "target" : {
                        "node" : 4,
                        "path" : "translation"
                    }
                },
                {
                    "sampler" : 1,
                    "target" : {
                        "node" : 4,
                        "path" : "rotation"
                    }
                },
                {
                    "sampler" : 2,
                    "target" : {
                        "node" : 4,
                        "path" : "scale"
                    }
                }
            ],
            "name" : "egg.001Action",
            "samplers" : [
                {
                    "input" : 22,
                    "interpolation" : "LINEAR",
                    "output" : 28
                },
                {
                    "input" : 22,
                    "interpolation" : "LINEAR",
                    "output" : 29
                },
                {
                    "input" : 22,
                    "interpolation" : "LINEAR",
                    "output" : 30
                }
            ]
        },
        {
            "channels" : [
                {
                    "sampler" : 0,
                    "target" : {
                        "node" : 5,
                        "path" : "translation"
                    }
                },
                {
                    "sampler" : 1,
                    "target" : {
                        "node" : 5,
                        "path" : "rotation"
                    }
                },
                {
                    "sampler" : 2,
                    "target" : {
                        "node" : 5,
                        "path" : "scale"
                    }
                }
            ],
            "name" : "eggyolkAction",
            "samplers" : [
                {
                    "input" : 26,
                    "interpolation" : "LINEAR",
                    "output" : 31
                },
                {
                    "input" : 26,
                    "interpolation" : "LINEAR",
                    "output" : 32
                },
                {
                    "input" : 33,
                    "interpolation" : "LINEAR",
                    "output" : 34
                }
            ]
        }
    ],
    "materials" : [
        {
            "doubleSided" : true,
            "name" : "eggshells",
            "pbrMetallicRoughness" : {
                "baseColorFactor" : [
                    1,
                    0.9547242522239685,
                    0.7660332918167114,
                    1
                ],
                "metallicFactor" : 0,
                "roughnessFactor" : 0.5
            }
        },
        {
            "doubleSided" : true,
            "extensions" : {
                "KHR_materials_transmission" : {
                    "transmissionFactor" : 1
                }
            },
            "name" : "Material.001eggwhite",
            "pbrMetallicRoughness" : {
                "baseColorFactor" : [
                    0.800000011920929,
                    0.800000011920929,
                    0.800000011920929,
                    1
                ],
                "metallicFactor" : 0,
                "roughnessFactor" : 0
            }
        },
        {
            "doubleSided" : true,
            "name" : "Material.001eggyolk",
            "pbrMetallicRoughness" : {
                "baseColorFactor" : [
                    0.8000000715255737,
                    0.3096085786819458,
                    0,
                    1
                ],
                "metallicFactor" : 0,
                "roughnessFactor" : 0
            }
        },
        {
            "doubleSided" : true,
            "name" : "Material.001",
            "pbrMetallicRoughness" : {}
        }
    ],
    "meshes" : [
        {
            "name" : "Sphere",
            "primitives" : [
                {
                    "attributes" : {
                        "POSITION" : 0,
                        "NORMAL" : 1,
                        "TEXCOORD_0" : 2
                    },
                    "indices" : 3,
                    "material" : 0
                }
            ]
        },
        {
            "extras" : {
                "targetNames" : [
                    "droop"
                ]
            },
            "name" : "Sphere.001",
            "primitives" : [
                {
                    "attributes" : {
                        "POSITION" : 4,
                        "NORMAL" : 5,
                        "TEXCOORD_0" : 6
                    },
                    "indices" : 7,
                    "material" : 1,
                    "targets" : [
                        {
                            "POSITION" : 8,
                            "NORMAL" : 9
                        }
                    ]
                }
            ],
            "weights" : [
                0
            ]
        },
        {
            "name" : "Sphere.002",
            "primitives" : [
                {
                    "attributes" : {
                        "POSITION" : 10,
                        "NORMAL" : 11,
                        "TEXCOORD_0" : 12
                    },
                    "indices" : 13,
                    "material" : 0
                }
            ]
        },
        {
            "name" : "Sphere.005",
            "primitives" : [
                {
                    "attributes" : {
                        "POSITION" : 14,
                        "NORMAL" : 15,
                        "TEXCOORD_0" : 16
                    },
                    "indices" : 17,
                    "material" : 2
                }
            ]
        },
        {
            "name" : "Cube.001",
            "primitives" : [
                {
                    "attributes" : {
                        "POSITION" : 18,
                        "NORMAL" : 19,
                        "TEXCOORD_0" : 20
                    },
                    "indices" : 21,
                    "material" : 3
                }
            ]
        }
    ],
    "accessors" : [
        {
            "bufferView" : 0,
            "componentType" : 5126,
            "count" : 1288,
            "max" : [
                1.0000005960464478,
                0.19885267317295074,
                1.000001072883606
            ],
            "min" : [
                -1.000000238418579,
                -1,
                -1
            ],
            "type" : "VEC3"
        },
        {
            "bufferView" : 1,
            "componentType" : 5126,
            "count" : 1288,
            "type" : "VEC3"
        },
        {
            "bufferView" : 2,
            "componentType" : 5126,
            "count" : 1288,
            "type" : "VEC2"
        },
        {
            "bufferView" : 3,
            "componentType" : 5123,
            "count" : 6666,
            "type" : "SCALAR"
        },
        {
            "bufferView" : 4,
            "componentType" : 5126,
            "count" : 2143,
            "max" : [
                1.0000005960464478,
                1.5924913883209229,
                1.000001072883606
            ],
            "min" : [
                -1.000000238418579,
                -1,
                -1
            ],
            "type" : "VEC3"
        },
        {
            "bufferView" : 5,
            "componentType" : 5126,
            "count" : 2143,
            "type" : "VEC3"
        },
        {
            "bufferView" : 6,
            "componentType" : 5126,
            "count" : 2143,
            "type" : "VEC2"
        },
        {
            "bufferView" : 7,
            "componentType" : 5123,
            "count" : 11904,
            "type" : "SCALAR"
        },
        {
            "bufferView" : 8,
            "componentType" : 5126,
            "count" : 2143,
            "max" : [
                2.084273338317871,
                0.783332347869873,
                0.4274698495864868
            ],
            "min" : [
                -0.5310133099555969,
                -1.150660514831543,
                -0.5816699266433716
            ],
            "type" : "VEC3"
        },
        {
            "bufferView" : 9,
            "componentType" : 5126,
            "count" : 2143,
            "type" : "VEC3"
        },
        {
            "bufferView" : 10,
            "componentType" : 5126,
            "count" : 1232,
            "max" : [
                1.0000005960464478,
                1.5924913883209229,
                0.9969643354415894
            ],
            "min" : [
                -0.9993272423744202,
                -0.09801734238862991,
                -0.9983282685279846
            ],
            "type" : "VEC3"
        },
        {
            "bufferView" : 11,
            "componentType" : 5126,
            "count" : 1232,
            "type" : "VEC3"
        },
        {
            "bufferView" : 12,
            "componentType" : 5126,
            "count" : 1232,
            "type" : "VEC2"
        },
        {
            "bufferView" : 13,
            "componentType" : 5123,
            "count" : 6336,
            "type" : "SCALAR"
        },
        {
            "bufferView" : 14,
            "componentType" : 5126,
            "count" : 2143,
            "max" : [
                1.0000005960464478,
                1,
                1.000001072883606
            ],
            "min" : [
                -1.000000238418579,
                -1,
                -1
            ],
            "type" : "VEC3"
        },
        {
            "bufferView" : 15,
            "componentType" : 5126,
            "count" : 2143,
            "type" : "VEC3"
        },
        {
            "bufferView" : 16,
            "componentType" : 5126,
            "count" : 2143,
            "type" : "VEC2"
        },
        {
            "bufferView" : 17,
            "componentType" : 5123,
            "count" : 11904,
            "type" : "SCALAR"
        },
        {
            "bufferView" : 18,
            "componentType" : 5126,
            "count" : 22,
            "max" : [
                1,
                1,
                1
            ],
            "min" : [
                -1,
                -1,
                -1
            ],
            "type" : "VEC3"
        },
        {
            "bufferView" : 19,
            "componentType" : 5126,
            "count" : 22,
            "type" : "VEC3"
        },
        {
            "bufferView" : 20,
            "componentType" : 5126,
            "count" : 22,
            "type" : "VEC2"
        },
        {
            "bufferView" : 21,
            "componentType" : 5123,
            "count" : 54,
            "type" : "SCALAR"
        },
        {
            "bufferView" : 22,
            "componentType" : 5126,
            "count" : 60,
            "max" : [
                2.4583333333333335
            ],
            "min" : [
                0
            ],
            "type" : "SCALAR"
        },
        {
            "bufferView" : 23,
            "componentType" : 5126,
            "count" : 60,
            "type" : "VEC3"
        },
        {
            "bufferView" : 24,
            "componentType" : 5126,
            "count" : 60,
            "type" : "VEC4"
        },
        {
            "bufferView" : 25,
            "componentType" : 5126,
            "count" : 60,
            "type" : "VEC3"
        },
        {
            "bufferView" : 26,
            "componentType" : 5126,
            "count" : 58,
            "max" : [
                2.4583333333333335
            ],
            "min" : [
                0.08333333333333333
            ],
            "type" : "SCALAR"
        },
        {
            "bufferView" : 27,
            "componentType" : 5126,
            "count" : 58,
            "type" : "SCALAR"
        },
        {
            "bufferView" : 28,
            "componentType" : 5126,
            "count" : 60,
            "type" : "VEC3"
        },
        {
            "bufferView" : 29,
            "componentType" : 5126,
            "count" : 60,
            "type" : "VEC4"
        },
        {
            "bufferView" : 30,
            "componentType" : 5126,
            "count" : 60,
            "type" : "VEC3"
        },
        {
            "bufferView" : 31,
            "componentType" : 5126,
            "count" : 58,
            "type" : "VEC3"
        },
        {
            "bufferView" : 32,
            "componentType" : 5126,
            "count" : 58,
            "type" : "VEC4"
        },
        {
            "bufferView" : 33,
            "componentType" : 5126,
            "count" : 18,
            "max" : [
                0.7916666666666666
            ],
            "min" : [
                0.08333333333333333
            ],
            "type" : "SCALAR"
        },
        {
            "bufferView" : 34,
            "componentType" : 5126,
            "count" : 18,
            "type" : "VEC3"
        }
    ],
    "bufferViews" : [
        {
            "buffer" : 0,
            "byteLength" : 15456,
            "byteOffset" : 0
        },
        {
            "buffer" : 0,
            "byteLength" : 15456,
            "byteOffset" : 15456
        },
        {
            "buffer" : 0,
            "byteLength" : 10304,
            "byteOffset" : 30912
        },
        {
            "buffer" : 0,
            "byteLength" : 13332,
            "byteOffset" : 41216
        },
        {
            "buffer" : 0,
            "byteLength" : 25716,
            "byteOffset" : 54548
        },
        {
            "buffer" : 0,
            "byteLength" : 25716,
            "byteOffset" : 80264
        },
        {
            "buffer" : 0,
            "byteLength" : 17144,
            "byteOffset" : 105980
        },
        {
            "buffer" : 0,
            "byteLength" : 23808,
            "byteOffset" : 123124
        },
        {
            "buffer" : 0,
            "byteLength" : 25716,
            "byteOffset" : 146932
        },
        {
            "buffer" : 0,
            "byteLength" : 25716,
            "byteOffset" : 172648
        },
        {
            "buffer" : 0,
            "byteLength" : 14784,
            "byteOffset" : 198364
        },
        {
            "buffer" : 0,
            "byteLength" : 14784,
            "byteOffset" : 213148
        },
        {
            "buffer" : 0,
            "byteLength" : 9856,
            "byteOffset" : 227932
        },
        {
            "buffer" : 0,
            "byteLength" : 12672,
            "byteOffset" : 237788
        },
        {
            "buffer" : 0,
            "byteLength" : 25716,
            "byteOffset" : 250460
        },
        {
            "buffer" : 0,
            "byteLength" : 25716,
            "byteOffset" : 276176
        },
        {
            "buffer" : 0,
            "byteLength" : 17144,
            "byteOffset" : 301892
        },
        {
            "buffer" : 0,
            "byteLength" : 23808,
            "byteOffset" : 319036
        },
        {
            "buffer" : 0,
            "byteLength" : 264,
            "byteOffset" : 342844
        },
        {
            "buffer" : 0,
            "byteLength" : 264,
            "byteOffset" : 343108
        },
        {
            "buffer" : 0,
            "byteLength" : 176,
            "byteOffset" : 343372
        },
        {
            "buffer" : 0,
            "byteLength" : 108,
            "byteOffset" : 343548
        },
        {
            "buffer" : 0,
            "byteLength" : 240,
            "byteOffset" : 343656
        },
        {
            "buffer" : 0,
            "byteLength" : 720,
            "byteOffset" : 343896
        },
        {
            "buffer" : 0,
            "byteLength" : 960,
            "byteOffset" : 344616
        },
        {
            "buffer" : 0,
            "byteLength" : 720,
            "byteOffset" : 345576
        },
        {
            "buffer" : 0,
            "byteLength" : 232,
            "byteOffset" : 346296
        },
        {
            "buffer" : 0,
            "byteLength" : 232,
            "byteOffset" : 346528
        },
        {
            "buffer" : 0,
            "byteLength" : 720,
            "byteOffset" : 346760
        },
        {
            "buffer" : 0,
            "byteLength" : 960,
            "byteOffset" : 347480
        },
        {
            "buffer" : 0,
            "byteLength" : 720,
            "byteOffset" : 348440
        },
        {
            "buffer" : 0,
            "byteLength" : 696,
            "byteOffset" : 349160
        },
        {
            "buffer" : 0,
            "byteLength" : 928,
            "byteOffset" : 349856
        },
        {
            "buffer" : 0,
            "byteLength" : 72,
            "byteOffset" : 350784
        },
        {
            "buffer" : 0,
            "byteLength" : 216,
            "byteOffset" : 350856
        }
    ],
    "buffers" : [
        {
            "byteLength" : 351072,
            "uri" : "data:application/octet-stream;base64,"
        }
    ]
}
